<svg width="12" height="11" viewBox="0 0 12 11" fill="none" xmlns="http://www.w3.org/2000/svg">
<path d="M5.244 0.64L4.14 0.532C4.14 1.456 3.972 2.536 3.756 3.484C3.432 4.96 2.472 8.164 1.104 9.988L2.076 10.384C3.432 8.188 4.296 5.2 4.704 3.52C4.86 2.776 5.028 1.792 5.1 1.36C5.148 1.12 5.196 0.868 5.244 0.64ZM9.384 1.924L8.508 2.32C9.348 3.304 10.284 5.428 10.644 6.664L11.568 6.22C11.172 5.104 10.128 2.896 9.384 1.924ZM0.924 3.28L1.032 4.312C1.332 4.264 1.836 4.204 2.112 4.168C2.844 4.096 5.088 3.832 5.892 3.832C6.66 3.832 7.164 4.036 7.164 5.128C7.164 6.424 6.984 7.996 6.6 8.8C6.348 9.328 5.988 9.424 5.544 9.424C5.208 9.424 4.584 9.328 4.08 9.172L4.236 10.18C4.62 10.264 5.184 10.348 5.652 10.348C6.42 10.348 7.02 10.156 7.404 9.352C7.896 8.356 8.088 6.448 8.088 5.02C8.088 3.388 7.212 2.98 6.144 2.98C5.328 2.98 2.892 3.256 2.004 3.28C1.62 3.292 1.308 3.292 0.924 3.28Z" fill="#F79841"/>
</svg>
